:version 1.10
:name ASF
:units
  mass 1
  length 1
  angle deg
:documentation
  ASF file generated by Kaydara
:root
  axis xyz
  order  tx ty tz rx ry rz
  position 0 0 0
  orientation 0 0 0
:bonedata
  begin
    id 1
    name RightUpLegDummy
    direction -0.718183 -0.695806 0.00816078
    length 4.904
    axis 0 0 0 xyz
  end
  begin
    id 2
    name RightUpLeg
    direction 3.53373e-006 -0.995788 0.0916898
    length 17.4976
    axis -3.49089 -0.000906625 0.000286804 xyz
    dof rx ry rz
  end
  begin
    id 3
    name RightLeg
    direction 0.00371092 -0.995096 -0.0988419
    length 16.5821
    axis 3.68512 0.0193738 -0.131023 xyz
    dof rx ry rz
  end
  begin
    id 4
    name RightFoot
    direction 0.00079151 -0.46099 0.887405
    length 3.77069
    axis 4.81691e-005 -0.120479 -0.188788 xyz
    dof rx ry rz
  end
  begin
    id 5
    name RightToes
    direction 0 0 0
    length 0
    axis 0 0 0 xyz
    dof rx ry rz
  end
  begin
    id 6
    name SpineDummy
    direction 8.3039e-015 1 4.57515e-016
    length 4.6813
    axis 0 0 0 xyz
  end
  begin
    id 7
    name Spine
    direction -3.15643e-008 0.999988 0.00495137
    length 10.1015
    axis -0.001389 0.000121418 2.40972e-006 xyz
    dof rx ry rz
  end
  begin
    id 8
    name Spine1
    direction 0 0 0
    length 0
    axis -0.001389 0.000121451 1.30017e-006 xyz
    dof rx ry rz
  end
  begin
    id 9
    name HEadDummy
    direction -1.99912e-008 0.999999 0.00127422
    length 3.43865
    axis -0.001389 0.000121451 1.30017e-006 xyz
  end
  begin
    id 10
    name HEad
    direction 0 0 0
    length 0
    axis 0 0 0 xyz
    dof rx ry rz
  end
  begin
    id 11
    name LeftShoulder1Dummy
    direction 0.998891 -0.0402509 -0.0244456
    length 3.5433
    axis -0.001389 0.000121451 1.30017e-006 xyz
  end
  begin
    id 12
    name LeftShoulder1
    direction 0.99951 -0.000327763 0.0313091
    length 4.05031
    axis -0.001389 0.000121451 1.30017e-006 xyz
    dof rx ry rz
  end
  begin
    id 13
    name LeftArm
    direction 0.998561 -0.00100056 -0.0536182
    length 10.3537
    axis -23.1894 0.134784 0.967509 xyz
    dof rx ry rz
  end
  begin
    id 14
    name LeftForeArm
    direction 0.998903 0.00866432 0.046012
    length 8.70632
    axis -9.91835 -0.06569 -0.177794 xyz
    dof rx ry rz
  end
  begin
    id 15
    name LeftHand
    direction 0 0 0
    length 0
    axis 0 0 0 xyz
    dof rx ry rz
  end
  begin
    id 16
    name RightShoulderDummy
    direction -0.998891 -0.0402509 -0.0244414
    length 3.5433
    axis -0.001389 0.000121451 1.30017e-006 xyz
  end
  begin
    id 17
    name RightShoulder
    direction -0.99951 -0.000327807 0.0313133
    length 4.05031
    axis 0.215806 0.000203643 -0.0068026 xyz
    dof rx ry rz
  end
  begin
    id 18
    name RightArm
    direction -0.998573 -0.000999564 -0.053403
    length 10.3947
    axis -23.2009 -0.134239 -0.964101 xyz
    dof rx ry rz
  end
  begin
    id 19
    name RightForeArm
    direction -0.998898 0.00868028 0.0461306
    length 8.68355
    axis -9.92322 0.0658061 0.178868 xyz
    dof rx ry rz
  end
  begin
    id 20
    name RightHand
    direction 0 0 0
    length 0
    axis 0 0 0 xyz
    dof rx ry rz
  end
  begin
    id 21
    name LeftUpLegDummy
    direction 0.718183 -0.695806 0.00816078
    length 4.904
    axis 0 0 0 xyz
  end
  begin
    id 22
    name LeftUpLeg
    direction -6.81752e-006 -0.995793 0.0916337
    length 17.4976
    axis -3.48766 0.00143442 -0.000524262 xyz
    dof rx ry rz
  end
  begin
    id 23
    name LeftLeg
    direction -0.00601358 -0.995091 -0.0987824
    length 16.5821
    axis 3.68178 -0.00654042 -0.000285133 xyz
    dof rx ry rz
  end
  begin
    id 24
    name LeftFoot
    direction -0.00417578 -0.460984 0.887399
    length 3.77069
    axis 1.87233e-006 4.66016e-005 -8.6538e-006 xyz
    dof rx ry rz
  end
  begin
    id 25
    name LeftToes
    direction 0 0 0
    length 0
    axis 0 0 0 xyz
    dof rx ry rz
  end
:hierarchy
  begin
    root RightUpLegDummy SpineDummy LeftUpLegDummy
    RightUpLegDummy RightUpLeg
    RightUpLeg RightLeg
    RightLeg RightFoot
    RightFoot RightToes
    SpineDummy Spine
    Spine Spine1
    Spine1 HEadDummy LeftShoulder1Dummy RightShoulderDummy
    HEadDummy HEad
    LeftShoulder1Dummy LeftShoulder1
    LeftShoulder1 LeftArm
    LeftArm LeftForeArm
    LeftForeArm LeftHand
    RightShoulderDummy RightShoulder
    RightShoulder RightArm
    RightArm RightForeArm
    RightForeArm RightHand
    LeftUpLegDummy LeftUpLeg
    LeftUpLeg LeftLeg
    LeftLeg LeftFoot
    LeftFoot LeftToes
  end

:SAMPLES-PER-SECOND 30
:FULLY-SPECIFIED
:DEGREES
64
root  48.8099 39.251 -1.67239 -41.8531 -85.3349 42.2316
RightUpLeg  9.33526 -13.5414 -14.028
RightLeg  12.2574 -2.49816 3.64821
RightFoot  -15.8192 0.241785 8.95049
RightToes  0.000481921 0.542163 -0.142578
Spine  10.7472 4.12664 9.31194
Spine1  0.370383 7.36884 -13.0946
HEad  -16.0951 0.629518 -7.30068
LeftShoulder1  7.20696 -12.3959 -39.1247
LeftArm  -4.68861 55.9154 -14.4739
LeftForeArm  9.92602 -4.83874 -2.80726
LeftHand  -0.25398 0.0180481 5.50724
RightShoulder  3.53667 5.98352 31.3303
RightArm  -20.1429 27.2253 18.5109
RightForeArm  16.7166 61.2854 19.4698
RightHand  -0.927226 2.75529 -13.4462
LeftUpLeg  -26.3287 7.10526 0.183344
LeftLeg  22.7966 0.563414 0.571312
LeftFoot  -2.90925 0.717548 -9.49271
LeftToes  1.06247e-005 4.65869e-005 -8.65512e-006
65
root  47.5829 39.0175 -1.38479 -42.6671 -85.4039 43.0538
RightUpLeg  11.1046 -14.2741 -14.9817
RightLeg  12.9418 -1.38611 3.16861
RightFoot  -16.5615 0.328585 9.63204
RightToes  0.000481921 0.542163 -0.142578
Spine  9.63177 3.75634 8.31274
Spine1  1.87868 6.98154 -12.4429
HEad  -11.0042 1.30648 -5.36421
LeftShoulder1  7.02245 -11.8957 -39.3871
LeftArm  -10.8537 53.6053 -20.4324
LeftForeArm  7.77123 -7.28054 -2.20281
LeftHand  -0.25398 0.0180481 5.50724
RightShoulder  3.86562 6.55457 32.4682
RightArm  -17.9741 20.4846 23.5702
RightForeArm  30.3634 71.2459 32.2363
RightHand  -0.896099 2.38491 -13.5324
LeftUpLeg  -24.4707 10.4897 -1.44145
LeftLeg  18.6336 1.40817 0.856631
LeftFoot  -1.40689 0.662593 -7.57404
LeftToes  1.06247e-005 4.65869e-005 -8.65512e-006
66
root  46.295 38.8111 -1.02193 -48.9155 -85.2131 49.1264
RightUpLeg  12.6746 -15.1746 -16.5765
RightLeg  14.4003 1.06358 2.21243
RightFoot  -17.2279 0.516679 12.2001
RightToes  0.000481921 0.542163 -0.142578
Spine  8.73401 3.357 6.30926
Spine1  3.37952 6.39265 -11.1909
HEad  -5.80637 1.87712 -3.11215
LeftShoulder1  6.98206 -11.2896 -40.8959
LeftArm  -16.2384 48.8868 -25.0232
LeftForeArm  6.12377 -10.358 -1.92679
LeftHand  -0.25398 0.0180481 5.50724
RightShoulder  4.49479 7.33844 35.4746
RightArm  -16.7531 11.6014 27.3524
RightForeArm  59.6688 77.9786 54.262
RightHand  -0.553395 0.19167 -11.5721
LeftUpLeg  -22.8172 13.0531 -3.19598
LeftLeg  18.3051 2.16198 1.12854
LeftFoot  -0.0807948 0.377527 -3.8035
LeftToes  1.06247e-005 4.65869e-005 -8.65512e-006
67
root  45.0372 38.6658 -0.630372 -57.3064 -84.4319 56.8801
RightUpLeg  13.1101 -14.2577 -18.2666
RightLeg  18.3844 2.08465 0.730642
RightFoot  -16.3508 0.628013 17.2374
RightToes  0.000481921 0.542163 -0.142578
Spine  8.41203 2.89041 3.07888
Spine1  5.43444 5.50357 -9.27126
HEad  -2.00218 1.57636 -0.716863
LeftShoulder1  7.38358 -10.9425 -44.4963
LeftArm  -18.4684 40.4564 -26.024
LeftForeArm  5.32382 -12.5828 -2.3257
LeftHand  -0.25398 0.0180481 5.50724
RightShoulder  5.0362 7.74087 38.7261
RightArm  -17.4927 1.49956 31.6131
RightForeArm  81.6103 79.9052 67.8899
RightHand  -0.488124 -0.420388 -11.2548
LeftUpLeg  -21.0753 12.4072 -4.45954
LeftLeg  20.3176 3.36019 1.71242
LeftFoot  -0.361169 0.0975234 -0.965982
LeftToes  1.06247e-005 4.65869e-005 -8.65512e-006
68
root  43.8818 38.6803 -0.24963 -64.3854 -83.738 63.0125
RightUpLeg  10.5141 -9.52725 -18.5383
RightLeg  26.8877 -2.04656 -1.47203
RightFoot  -11.0143 -0.1192 20.3077
RightToes  0.000481921 0.542163 -0.142578
Spine  8.8035 2.29672 -0.849717
Spine1  7.57483 4.16916 -6.71031
HEad  0.335363 0.823808 1.71563
LeftShoulder1  8.03495 -10.9971 -48.3557
LeftArm  -18.7383 29.6449 -25.3585
LeftForeArm  6.44045 -13.8724 -2.93832
LeftHand  -0.25398 0.0180481 5.50724
RightShoulder  5.16369 7.6502 40.145
RightArm  -18.1022 -6.60879 36.5667
RightForeArm  52.2521 75.315 42.7122
RightHand  -1.45783 4.1687 -17.3212
LeftUpLeg  -18.8035 10.4591 -5.11021
LeftLeg  22.149 4.74265 2.45016
LeftFoot  -2.51782 0.0491731 -0.479705
LeftToes  1.06247e-005 4.65869e-005 -8.65512e-006
69
root  42.8152 38.8524 0.0942203 -72.2569 -83.8454 70.1523
RightUpLeg  4.34872 -5.76371 -17.8216
RightLeg  39.2192 -5.15139 -4.73122
RightFoot  -1.55248 -1.48751 17.5899
RightToes  0.000481921 0.542163 -0.142578
Spine  9.82322 1.67997 -4.78978
Spine1  8.72164 2.43442 -3.61463
HEad  2.1011 0.620142 3.91462
LeftShoulder1  8.41972 -11.199 -49.9835
LeftArm  -18.9486 19.3163 -25.7294
LeftForeArm  11.1508 -16.2624 -3.36711
LeftHand  -0.25398 0.0180481 5.50724
RightShoulder  5.17399 7.66941 40.1566
RightArm  -14.7594 -11.7134 38.5891
RightForeArm  13.2324 61.3801 19.7891
RightHand  -3.12996 9.68248 -24.4457
LeftUpLeg  -16.0059 10.4998 -5.13525
LeftLeg  22.252 5.2039 2.67824
LeftFoot  -5.02817 0.0978409 -1.22716
LeftToes  1.06247e-005 4.65869e-005 -8.65512e-006
70
root  41.7954 39.035 0.38859 -79.8728 -84.4127 77.5625
RightUpLeg  -3.74854 -3.8926 -16.533
RightLeg  51.615 -4.54741 -6.39395
RightFoot  6.09937 -1.89514 12.4408
RightToes  0.000481921 0.542163 -0.142578
Spine  11.2348 1.15329 -8.28115
Spine1  8.83938 0.499894 -0.265996
HEad  3.14558 0.750562 5.25527
LeftShoulder1  8.36815 -11.344 -49.1932
LeftArm  -19.1376 10.6973 -27.221
LeftForeArm  19.2875 -21.4705 -3.74265
LeftHand  -0.25398 0.0180481 5.50724
RightShoulder  5.51281 8.34184 40.3712
RightArm  -6.24831 -16.7286 35.6454
RightForeArm  -3.92299 49.8165 13.3019
RightHand  -3.5516 10.7665 -25.5761
LeftUpLeg  -13.3976 12.4029 -4.69496
LeftLeg  21.3903 4.35182 2.19619
LeftFoot  -6.68416 0.10823 -1.65296
LeftToes  1.06247e-005 4.65869e-005 -8.65512e-006
71
root  40.7406 39.2514 0.683374 -78.4405 -84.9735 76.2923
RightUpLeg  -11.2473 -4.6037 -15.0788
RightLeg  60.9776 -2.48108 -5.349
RightFoot  7.86158 -1.70916 10.3681
RightToes  0.000481921 0.542163 -0.142578
Spine  12.6417 0.418436 -10.383
Spine1  8.69308 -1.50367 2.8461
HEad  2.82128 0.684662 5.39341
LeftShoulder1  8.07175 -11.3613 -47.3796
LeftArm  -19.1541 3.25142 -28.1957
LeftForeArm  28.7147 -29.2045 -4.74752
LeftHand  -0.25398 0.0180481 5.50724
RightShoulder  5.89736 9.11885 40.5614
RightArm  1.10101 -24.5402 30.6343
RightForeArm  -0.961298 50.2364 13.6538
RightHand  -3.18319 10.1853 -23.8461
LeftUpLeg  -10.931 13.1692 -3.94926
LeftLeg  19.9669 3.53877 1.39908
LeftFoot  -7.52527 0.0962489 -1.52971
LeftToes  1.06247e-005 4.65869e-005 -8.65512e-006
